<svg width="24" height="24" viewBox="0 0 24 24" fill="none" xmlns="http://www.w3.org/2000/svg">
<path d="M13.2483 12.52C12.6546 11.6294 11.3459 11.6294 10.7522 12.52L7.65356 17.168C6.989 18.1648 7.70359 19.5 8.90163 19.5H15.0989C16.2969 19.5 17.0115 18.1648 16.3469 17.168L13.2483 12.52Z" fill="#3A52EE"/>
<path fill-rule="evenodd" clip-rule="evenodd" d="M9.49994 8.25839C10.24 7.76392 11.11 7.5 12 7.5C12.89 7.5 13.76 7.76392 14.5001 8.25839C15.2401 8.75285 15.8169 9.45566 16.1575 10.2779C16.4981 11.1002 16.5872 12.005 16.4135 12.8779C16.3327 13.2842 15.9379 13.548 15.5316 13.4672C15.1254 13.3864 14.8615 12.9915 14.9424 12.5853C15.0581 12.0033 14.9987 11.4001 14.7716 10.852C14.5446 10.3038 14.1601 9.83524 13.6667 9.50559C13.1734 9.17595 12.5933 9 12 9C11.4067 9 10.8266 9.17595 10.3333 9.50559C9.83994 9.83524 9.45543 10.3038 9.22836 10.852C9.0013 11.4001 8.94189 12.0033 9.05765 12.5853C9.13846 12.9915 8.87463 13.3864 8.46838 13.4672C8.06212 13.548 7.66728 13.2842 7.58647 12.8779C7.41284 12.005 7.50195 11.1002 7.84254 10.2779C8.18314 9.45566 8.75991 8.75285 9.49994 8.25839Z" fill="#3A52EE"/>
<path fill-rule="evenodd" clip-rule="evenodd" d="M7.83323 5.76398C9.0666 4.93987 10.5166 4.5 12 4.5C13.4834 4.5 14.9334 4.93987 16.1668 5.76398C17.4001 6.58809 18.3614 7.75943 18.9291 9.12987C19.4968 10.5003 19.6453 12.0083 19.3559 13.4632C19.2186 14.1534 18.9856 14.8171 18.6667 15.4359C18.4769 15.8041 18.0246 15.9488 17.6564 15.759C17.2882 15.5692 17.1436 15.1169 17.3333 14.7487C17.5885 14.2536 17.7749 13.7228 17.8847 13.1705C18.1162 12.0067 17.9974 10.8003 17.5433 9.7039C17.0892 8.60754 16.3201 7.67047 15.3334 7.01118C14.3467 6.35189 13.1867 6 12 6C10.8133 6 9.65328 6.35189 8.66658 7.01118C7.67989 7.67047 6.91085 8.60754 6.45673 9.7039C6.0026 10.8003 5.88378 12.0067 6.11529 13.1705C6.22513 13.7228 6.41149 14.2536 6.66667 14.7487C6.85643 15.1169 6.71178 15.5692 6.34359 15.759C5.9754 15.9487 5.5231 15.8041 5.33333 15.4359C5.01438 14.817 4.78142 14.1534 4.64411 13.4632C4.35472 12.0083 4.50325 10.5003 5.07091 9.12987C5.63856 7.75943 6.59986 6.58809 7.83323 5.76398Z" fill="#3A52EE"/>
</svg>
