<svg width="24" height="24" viewBox="0 0 24 24" fill="none" xmlns="http://www.w3.org/2000/svg">
<path fill-rule="evenodd" clip-rule="evenodd" d="M1.5 12C1.5 6.20101 6.20101 1.5 12 1.5C17.799 1.5 22.5 6.20101 22.5 12C22.5 17.799 17.799 22.5 12 22.5C6.20101 22.5 1.5 17.799 1.5 12ZM9.53033 13.2803C9.23744 13.5732 8.76256 13.5732 8.46967 13.2803C8.17678 12.9874 8.17678 12.5126 8.46967 12.2197L11.4697 9.21967C11.7626 8.92678 12.2374 8.92678 12.5303 9.21967L15.5303 12.2197C15.8232 12.5126 15.8232 12.9874 15.5303 13.2803C15.2374 13.5732 14.7626 13.5732 14.4697 13.2803L12 10.8107L9.53033 13.2803Z" fill="#3A52EE"/>
</svg>
