<svg width="24" height="24" viewBox="0 0 24 24" fill="none" xmlns="http://www.w3.org/2000/svg">
<path fill-rule="evenodd" clip-rule="evenodd" d="M1.5 12C1.5 6.20101 6.20101 1.5 12 1.5C17.799 1.5 22.5 6.20101 22.5 12C22.5 17.799 17.799 22.5 12 22.5C6.20101 22.5 1.5 17.799 1.5 12ZM15.2197 12.5303C15.5126 12.8232 15.9874 12.8232 16.2803 12.5303C16.5732 12.2374 16.5732 11.7626 16.2803 11.4697L12.5303 7.71967C12.2374 7.42678 11.7626 7.42678 11.4697 7.71967L7.71967 11.4697C7.42678 11.7626 7.42678 12.2374 7.71967 12.5303C8.01256 12.8232 8.48744 12.8232 8.78033 12.5303L11.25 10.0607V15.75C11.25 16.1642 11.5858 16.5 12 16.5C12.4142 16.5 12.75 16.1642 12.75 15.75V10.0607L15.2197 12.5303Z" fill="#3A52EE"/>
</svg>
