<svg width="24" height="24" viewBox="0 0 24 24" fill="none" xmlns="http://www.w3.org/2000/svg">
<path fill-rule="evenodd" clip-rule="evenodd" d="M1.5 12C1.5 6.20101 6.20101 1.5 12 1.5C17.799 1.5 22.5 6.20101 22.5 12C22.5 17.799 17.799 22.5 12 22.5C6.20101 22.5 1.5 17.799 1.5 12ZM8.78033 11.4697C8.48744 11.1768 8.01256 11.1768 7.71967 11.4697C7.42678 11.7626 7.42678 12.2374 7.71967 12.5303L11.4697 16.2803C11.7626 16.5732 12.2374 16.5732 12.5303 16.2803L16.2803 12.5303C16.5732 12.2374 16.5732 11.7626 16.2803 11.4697C15.9874 11.1768 15.5126 11.1768 15.2197 11.4697L12.75 13.9393V8.25C12.75 7.83579 12.4142 7.5 12 7.5C11.5858 7.5 11.25 7.83579 11.25 8.25V13.9393L8.78033 11.4697Z" fill="#3A52EE"/>
</svg>
