<svg width="24" height="24" viewBox="0 0 24 24" fill="none" xmlns="http://www.w3.org/2000/svg">
<path fill-rule="evenodd" clip-rule="evenodd" d="M1.5 12C1.5 6.20101 6.20101 1.5 12 1.5C17.799 1.5 22.5 6.20101 22.5 12C22.5 17.799 17.799 22.5 12 22.5C6.20101 22.5 1.5 17.799 1.5 12ZM10.7197 9.53033C10.4268 9.23744 10.4268 8.76256 10.7197 8.46967C11.0126 8.17678 11.4874 8.17678 11.7803 8.46967L14.7803 11.4697C15.0732 11.7626 15.0732 12.2374 14.7803 12.5303L11.7803 15.5303C11.4874 15.8232 11.0126 15.8232 10.7197 15.5303C10.4268 15.2374 10.4268 14.7626 10.7197 14.4697L13.1893 12L10.7197 9.53033Z" fill="#3A52EE"/>
</svg>
