<svg width="24" height="24" viewBox="0 0 24 24" fill="none" xmlns="http://www.w3.org/2000/svg">
<path fill-rule="evenodd" clip-rule="evenodd" d="M1.5 12C1.5 6.20101 6.20101 1.5 12 1.5C17.799 1.5 22.5 6.20101 22.5 12C22.5 17.799 17.799 22.5 12 22.5C6.20101 22.5 1.5 17.799 1.5 12ZM9.53033 10.7197C9.23744 10.4268 8.76256 10.4268 8.46967 10.7197C8.17678 11.0126 8.17678 11.4874 8.46967 11.7803L11.4697 14.7803C11.7626 15.0732 12.2374 15.0732 12.5303 14.7803L15.5303 11.7803C15.8232 11.4874 15.8232 11.0126 15.5303 10.7197C15.2374 10.4268 14.7626 10.4268 14.4697 10.7197L12 13.1893L9.53033 10.7197Z" fill="#3A52EE"/>
</svg>
