<svg width="24" height="24" viewBox="0 0 24 24" fill="none" xmlns="http://www.w3.org/2000/svg">
<path fill-rule="evenodd" clip-rule="evenodd" d="M1.5 12C1.5 6.20101 6.20101 1.5 12 1.5C17.799 1.5 22.5 6.20101 22.5 12C22.5 17.799 17.799 22.5 12 22.5C6.20101 22.5 1.5 17.799 1.5 12ZM13.2803 9.53033C13.5732 9.23744 13.5732 8.76256 13.2803 8.46967C12.9874 8.17678 12.5126 8.17678 12.2197 8.46967L9.21967 11.4697C8.92678 11.7626 8.92678 12.2374 9.21967 12.5303L12.2197 15.5303C12.5126 15.8232 12.9874 15.8232 13.2803 15.5303C13.5732 15.2374 13.5732 14.7626 13.2803 14.4697L10.8107 12L13.2803 9.53033Z" fill="#3A52EE"/>
</svg>
