<svg width="24" height="24" viewBox="0 0 24 24" fill="none" xmlns="http://www.w3.org/2000/svg">
<path d="M17.0426 17.25H9.93198L17.2181 9.96389C17.236 10.1402 17.2451 10.319 17.2451 10.5V13.65L18.1949 14.7897C19.0091 15.7667 18.3143 17.25 17.0426 17.25Z" fill="#3A52EE"/>
<path d="M6.01261 16.9267L4.71967 18.2197C4.42678 18.5126 4.42678 18.9874 4.71967 19.2803C5.01256 19.5732 5.48744 19.5732 5.78033 19.2803L19.2803 5.78033C19.5732 5.48744 19.5732 5.01256 19.2803 4.71967C18.9874 4.42678 18.5126 4.42678 18.2197 4.71967L15.9229 7.0164C15.1178 6.10932 14.0033 5.48308 12.7449 5.30313V4.5C12.7449 4.08579 12.4091 3.75 11.9949 3.75C11.5807 3.75 11.2449 4.08579 11.2449 4.5V5.3032C8.70078 5.66724 6.74513 7.85523 6.74513 10.5V13.65L5.79536 14.7897C5.21635 15.4845 5.40049 16.4354 6.01261 16.9267Z" fill="#3A52EE"/>
<path d="M8.56274 18.75C8.75015 19.1794 9.01645 19.5701 9.34802 19.9017C9.69624 20.2499 10.1096 20.5261 10.5646 20.7145C11.0196 20.903 11.5072 21 11.9997 21C12.4921 21 12.9798 20.903 13.4347 20.7145C13.8897 20.5261 14.3031 20.2499 14.6513 19.9017C14.9829 19.5701 15.2492 19.1794 15.4366 18.75H8.56274Z" fill="#3A52EE"/>
</svg>
