<svg width="24" height="24" viewBox="0 0 24 24" fill="none" xmlns="http://www.w3.org/2000/svg">
<path fill-rule="evenodd" clip-rule="evenodd" d="M1.5 12C1.5 6.20101 6.20101 1.5 12 1.5C17.799 1.5 22.5 6.20101 22.5 12C22.5 17.799 17.799 22.5 12 22.5C6.20101 22.5 1.5 17.799 1.5 12ZM12.75 6C12.75 5.58579 12.4142 5.25 12 5.25C11.5858 5.25 11.25 5.58579 11.25 6V12C11.25 12.1989 11.329 12.3897 11.4697 12.5303L14.0947 15.1553C14.3876 15.4482 14.8624 15.4482 15.1553 15.1553C15.4482 14.8624 15.4482 14.3876 15.1553 14.0947L12.75 11.6893V6Z" fill="#3A52EE"/>
</svg>
