<svg width="24" height="24" viewBox="0 0 24 24" fill="none" xmlns="http://www.w3.org/2000/svg">
<path d="M12 5.25C12.4142 5.25 12.75 5.58579 12.75 6V6.80828C13.4315 6.91574 14.059 7.16898 14.5654 7.54439C15.2566 8.05679 15.75 8.82566 15.75 9.75C15.75 10.1642 15.4142 10.5 15 10.5C14.5858 10.5 14.25 10.1642 14.25 9.75C14.25 9.39934 14.0684 9.04321 13.6721 8.74936C13.2723 8.45299 12.6836 8.25 12 8.25C11.3164 8.25 10.7277 8.45299 10.3279 8.74936C9.93156 9.04321 9.75 9.39934 9.75 9.75C9.75 10.1007 9.93156 10.4568 10.3279 10.7506C10.7277 11.047 11.3164 11.25 12 11.25C12.9664 11.25 13.8777 11.5345 14.5654 12.0444C15.2566 12.5568 15.75 13.3257 15.75 14.25C15.75 15.1743 15.2566 15.9432 14.5654 16.4556C14.059 16.831 13.4315 17.0843 12.75 17.1917V18C12.75 18.4142 12.4142 18.75 12 18.75C11.5858 18.75 11.25 18.4142 11.25 18V17.1917C10.5685 17.0843 9.94095 16.831 9.43458 16.4556C8.74344 15.9432 8.25 15.1743 8.25 14.25C8.25 13.8358 8.58579 13.5 9 13.5C9.41421 13.5 9.75 13.8358 9.75 14.25C9.75 14.6007 9.93156 14.9568 10.3279 15.2506C10.7277 15.547 11.3164 15.75 12 15.75C12.6836 15.75 13.2723 15.547 13.6721 15.2506C14.0684 14.9568 14.25 14.6007 14.25 14.25C14.25 13.8993 14.0684 13.5432 13.6721 13.2494C13.2723 12.953 12.6836 12.75 12 12.75C11.0336 12.75 10.1223 12.4655 9.43458 11.9556C8.74344 11.4432 8.25 10.6743 8.25 9.75C8.25 8.82566 8.74344 8.05679 9.43458 7.54439C9.94095 7.16898 10.5685 6.91574 11.25 6.80828V6C11.25 5.58579 11.5858 5.25 12 5.25Z" fill="#3A52EE"/>
</svg>
