<svg width="24" height="24" viewBox="0 0 24 24" fill="none" xmlns="http://www.w3.org/2000/svg">
<path fill-rule="evenodd" clip-rule="evenodd" d="M3 12C3 7.02944 7.02944 3 12 3C16.9706 3 21 7.02944 21 12C21 16.9706 16.9706 21 12 21C7.02944 21 3 16.9706 3 12ZM12.439 9.79323C12.8754 9.88004 13.2763 10.0943 13.591 10.409C13.8839 10.7019 14.3588 10.7019 14.6517 10.409C14.9445 10.1161 14.9445 9.64124 14.6517 9.34835C14.1272 8.8239 13.459 8.46675 12.7316 8.32205C12.0042 8.17736 11.2502 8.25162 10.5649 8.53545C9.87971 8.81928 9.29404 9.29992 8.88199 9.91661C8.46993 10.5333 8.25 11.2583 8.25 12C8.25 12.7417 8.46993 13.4667 8.88199 14.0834C9.29404 14.7001 9.87971 15.1807 10.5649 15.4645C11.2502 15.7484 12.0042 15.8226 12.7316 15.6779C13.459 15.5332 14.1272 15.1761 14.6517 14.6516C14.9445 14.3588 14.9445 13.8839 14.6517 13.591C14.3588 13.2981 13.8839 13.2981 13.591 13.591C13.2763 13.9057 12.8754 14.1199 12.439 14.2068C12.0025 14.2936 11.5501 14.249 11.139 14.0787C10.7278 13.9084 10.3764 13.62 10.1292 13.25C9.88196 12.88 9.75 12.445 9.75 12C9.75 11.555 9.88196 11.12 10.1292 10.75C10.3764 10.38 10.7278 10.0916 11.139 9.92127C11.5501 9.75097 12.0025 9.70641 12.439 9.79323Z" fill="#3A52EE"/>
</svg>
