<svg width="24" height="24" viewBox="0 0 24 24" fill="none" xmlns="http://www.w3.org/2000/svg">
<path fill-rule="evenodd" clip-rule="evenodd" d="M4.57538 4.57538C8.67588 0.474874 15.3241 0.474874 19.4246 4.57538C23.5251 8.67588 23.5251 15.3241 19.4246 19.4246C15.3241 23.5251 8.67588 23.5251 4.57538 19.4246C0.474874 15.3241 0.474874 8.67588 4.57538 4.57538ZM15.8935 9.05518C15.9833 8.78568 15.9132 8.48856 15.7123 8.28768C15.5114 8.08681 15.2143 8.01667 14.9448 8.1065L10.1718 9.69749C9.94788 9.77214 9.77214 9.94788 9.69749 10.1718L8.1065 14.9448C8.01667 15.2143 8.08681 15.5114 8.28768 15.7123C8.48856 15.9132 8.78568 15.9833 9.05518 15.8935L13.8282 14.3025C14.0521 14.2278 14.2278 14.0521 14.3025 13.8282L15.8935 9.05518ZM12.75 12C12.75 12.4142 12.4142 12.75 12 12.75C11.5858 12.75 11.25 12.4142 11.25 12C11.25 11.5858 11.5858 11.25 12 11.25C12.4142 11.25 12.75 11.5858 12.75 12Z" fill="#3A52EE"/>
</svg>
