<svg width="24" height="24" viewBox="0 0 24 24" fill="none" xmlns="http://www.w3.org/2000/svg">
<path fill-rule="evenodd" clip-rule="evenodd" d="M1.5 12C1.5 6.20101 6.20101 1.5 12 1.5C17.799 1.5 22.5 6.20101 22.5 12C22.5 17.799 17.799 22.5 12 22.5C6.20101 22.5 1.5 17.799 1.5 12ZM9.75 9.75C9.75 9.39934 9.93156 9.04321 10.3279 8.74936C10.7277 8.45299 11.3164 8.25 12 8.25C12.6836 8.25 13.2723 8.45299 13.6721 8.74936C14.0684 9.04321 14.25 9.39934 14.25 9.75C14.25 10.1642 14.5858 10.5 15 10.5C15.4142 10.5 15.75 10.1642 15.75 9.75C15.75 8.82566 15.2566 8.05679 14.5654 7.54439C14.059 7.16898 13.4315 6.91574 12.75 6.80828V6C12.75 5.58579 12.4142 5.25 12 5.25C11.5858 5.25 11.25 5.58579 11.25 6V6.80828C10.5685 6.91574 9.94095 7.16898 9.43458 7.54439C8.74344 8.05679 8.25 8.82566 8.25 9.75C8.25 10.6743 8.74344 11.4432 9.43458 11.9556C10.1223 12.4655 11.0336 12.75 12 12.75C12.6836 12.75 13.2723 12.953 13.6721 13.2494C14.0684 13.5432 14.25 13.8993 14.25 14.25C14.25 14.6007 14.0684 14.9568 13.6721 15.2506C13.2723 15.547 12.6836 15.75 12 15.75C11.3164 15.75 10.7277 15.547 10.3279 15.2506C9.93156 14.9568 9.75 14.6007 9.75 14.25C9.75 13.8358 9.41421 13.5 9 13.5C8.58579 13.5 8.25 13.8358 8.25 14.25C8.25 15.1743 8.74344 15.9432 9.43458 16.4556C9.94095 16.831 10.5685 17.0843 11.25 17.1917V18C11.25 18.4142 11.5858 18.75 12 18.75C12.4142 18.75 12.75 18.4142 12.75 18V17.1917C13.4315 17.0843 14.059 16.831 14.5654 16.4556C15.2566 15.9432 15.75 15.1743 15.75 14.25C15.75 13.3257 15.2566 12.5568 14.5654 12.0444C13.8777 11.5345 12.9664 11.25 12 11.25C11.3164 11.25 10.7277 11.047 10.3279 10.7506C9.93156 10.4568 9.75 10.1007 9.75 9.75Z" fill="#3A52EE"/>
</svg>
