<svg width="24" height="24" viewBox="0 0 24 24" fill="none" xmlns="http://www.w3.org/2000/svg">
<path d="M9.75 3.75C9.75 3.33579 10.0858 3 10.5 3H13.5C13.9142 3 14.25 3.33579 14.25 3.75C14.25 4.16421 13.9142 4.5 13.5 4.5H10.5C10.0858 4.5 9.75 4.16421 9.75 3.75Z" fill="#3A52EE"/>
<path fill-rule="evenodd" clip-rule="evenodd" d="M6.19279 8.75345C5.13477 10.0464 4.5 11.699 4.5 13.5C4.5 17.6421 7.85786 21 12 21C16.1421 21 19.5 17.6421 19.5 13.5C19.5 11.699 18.8652 10.0464 17.8072 8.75345L18.375 8.18566L18.5947 8.40533C18.8876 8.69822 19.3624 8.69822 19.6553 8.40533C19.9482 8.11244 19.9482 7.63756 19.6553 7.34467L18.1553 5.84467C17.8624 5.55178 17.3876 5.55178 17.0947 5.84467C16.8018 6.13756 16.8018 6.61244 17.0947 6.90533L17.3143 7.125L16.7465 7.69279C15.4536 6.63477 13.801 6 12 6C10.199 6 8.54635 6.63477 7.25345 7.69279L6.68566 7.125L6.90533 6.90533C7.19822 6.61244 7.19822 6.13756 6.90533 5.84467C6.61244 5.55178 6.13756 5.55178 5.84467 5.84467L4.34467 7.34467C4.05178 7.63756 4.05178 8.11244 4.34467 8.40533C4.63756 8.69822 5.11244 8.69822 5.40533 8.40533L5.625 8.18566L6.19279 8.75345ZM12.75 9.75C12.75 9.33579 12.4142 9 12 9C11.5858 9 11.25 9.33579 11.25 9.75V12.75C11.25 13.1642 11.5858 13.5 12 13.5C12.4142 13.5 12.75 13.1642 12.75 12.75V9.75Z" fill="#3A52EE"/>
</svg>
