<svg width="24" height="24" viewBox="0 0 24 24" fill="none" xmlns="http://www.w3.org/2000/svg">
<path d="M9.77321 12.75C9.77321 11.5074 10.7806 10.5 12.0232 10.5C13.2659 10.5 14.2732 11.5074 14.2732 12.75C14.2732 13.9926 13.2659 15 12.0232 15C10.7806 15 9.77321 13.9926 9.77321 12.75Z" fill="#3A52EE"/>
<path fill-rule="evenodd" clip-rule="evenodd" d="M8.78033 5.15901C9.20229 4.73705 9.77458 4.5 10.3713 4.5H13.6287C14.2254 4.5 14.7977 4.73705 15.2197 5.15901L15.841 5.78033C15.9816 5.92098 16.1724 6 16.3713 6H18.75C19.9931 6 21 7.00857 21 8.25074V17.2493C21 18.4914 19.9931 19.5 18.75 19.5H5.25C4.00736 19.5 3 18.4926 3 17.25V8.25C3 7.00736 4.00736 6 5.25 6H7.62868C7.82759 6 8.01836 5.92098 8.15901 5.78033L8.78033 5.15901ZM6.75 9C6.33579 9 6 9.33579 6 9.75C6 10.1642 6.33579 10.5 6.75 10.5H6.7575C7.17171 10.5 7.5075 10.1642 7.5075 9.75C7.5075 9.33579 7.17171 9 6.7575 9H6.75ZM12.0232 9C9.95214 9 8.27321 10.6789 8.27321 12.75C8.27321 14.8211 9.95214 16.5 12.0232 16.5C14.0943 16.5 15.7732 14.8211 15.7732 12.75C15.7732 10.6789 14.0943 9 12.0232 9Z" fill="#3A52EE"/>
</svg>
