<svg width="24" height="24" viewBox="0 0 24 24" fill="none" xmlns="http://www.w3.org/2000/svg">
<path fill-rule="evenodd" clip-rule="evenodd" d="M9.85919 2.58093C10.3452 2.13095 11.0707 1.5 12 1.5C12.9293 1.5 13.6548 2.13095 14.1408 2.58093C14.2502 2.68225 14.3481 2.77556 14.4408 2.86396C14.5901 3.0063 14.7261 3.13603 14.8756 3.26596C15.103 3.4636 15.2839 3.58968 15.4372 3.65707C15.6142 3.72626 15.8476 3.76908 16.1538 3.79336C16.3656 3.81016 16.5714 3.81614 16.7965 3.82269C16.9139 3.8261 17.0365 3.82966 17.1679 3.83499C17.8235 3.86157 18.7827 3.92209 19.4303 4.56967C20.0779 5.21725 20.1384 6.17647 20.165 6.83212C20.1703 6.96346 20.1739 7.08599 20.1773 7.20327C20.1839 7.42839 20.1898 7.63439 20.2066 7.84617C20.2309 8.15238 20.2737 8.38578 20.3429 8.56276C20.4103 8.71609 20.5364 8.89701 20.734 9.1244C20.864 9.2739 20.9936 9.40985 21.136 9.55912C21.2244 9.65185 21.3177 9.74973 21.4191 9.85919C21.869 10.3452 22.5 11.0707 22.5 12C22.5 12.9293 21.869 13.6548 21.4191 14.1408C21.3178 14.2502 21.2245 14.348 21.1362 14.4407C20.9938 14.5899 20.864 14.7261 20.734 14.8756C20.5364 15.103 20.4103 15.2839 20.3429 15.4372C20.2737 15.6142 20.2309 15.8476 20.2066 16.1538C20.1898 16.3656 20.1839 16.5714 20.1773 16.7965C20.1739 16.9138 20.1703 17.0365 20.165 17.1679C20.1384 17.8235 20.0779 18.7827 19.4303 19.4303C18.7827 20.0779 17.8235 20.1384 17.1679 20.165C17.0365 20.1703 16.914 20.1739 16.7967 20.1773C16.5716 20.1839 16.3656 20.1898 16.1538 20.2066C15.8476 20.2309 15.6142 20.2737 15.4372 20.3429C15.2839 20.4103 15.103 20.5364 14.8756 20.734C14.7261 20.864 14.5902 20.9936 14.4409 21.1359C14.3482 21.2243 14.2502 21.3178 14.1408 21.4191C13.6548 21.869 12.9293 22.5 12 22.5C11.0707 22.5 10.3452 21.869 9.85919 21.4191C9.74973 21.3177 9.65185 21.2244 9.55912 21.136C9.40985 20.9936 9.2739 20.864 9.1244 20.734C8.89701 20.5364 8.71609 20.4103 8.56276 20.3429C8.38578 20.2737 8.15238 20.2309 7.84617 20.2066C7.63439 20.1898 7.42857 20.1839 7.20346 20.1773C7.08617 20.1739 6.96346 20.1703 6.83212 20.165C6.17647 20.1384 5.21725 20.0779 4.56967 19.4303C3.92209 18.7827 3.86157 17.8235 3.83499 17.1679C3.82966 17.0365 3.8261 16.9139 3.82269 16.7965C3.81614 16.5714 3.81016 16.3656 3.79336 16.1538C3.76908 15.8476 3.72626 15.6142 3.65707 15.4372C3.58968 15.2839 3.4636 15.103 3.26596 14.8756C3.13603 14.7261 3.0064 14.5902 2.86406 14.4409C2.7757 14.3482 2.6822 14.2502 2.58093 14.1408C2.13095 13.6548 1.5 12.9293 1.5 12C1.5 11.0707 2.13095 10.3452 2.58093 9.85919C2.68228 9.74973 2.77562 9.65185 2.86406 9.55911C3.00638 9.40985 3.13604 9.27389 3.26596 9.1244C3.4636 8.89702 3.58968 8.7161 3.65707 8.56278C3.72626 8.38579 3.76908 8.15239 3.79336 7.84617C3.81016 7.63439 3.81614 7.42857 3.82269 7.20346C3.8261 7.08613 3.82966 6.96351 3.83499 6.83212C3.86157 6.17647 3.92209 5.21725 4.56967 4.56967C5.21725 3.92209 6.17647 3.86157 6.83212 3.83499C6.96351 3.82966 7.08608 3.8261 7.20341 3.82269C7.42852 3.81615 7.63439 3.81016 7.84617 3.79336C8.15239 3.76908 8.38579 3.72626 8.56278 3.65707C8.7161 3.58968 8.89702 3.4636 9.1244 3.26596C9.27389 3.13604 9.40983 3.0064 9.55909 2.86408C9.65183 2.77564 9.74973 2.68228 9.85919 2.58093ZM14.85 9.45C15.0985 9.11863 15.0314 8.64853 14.7 8.4C14.3686 8.15147 13.8985 8.21863 13.65 8.55L9.15 14.55C8.90147 14.8814 8.96863 15.3515 9.3 15.6C9.63137 15.8485 10.1015 15.7814 10.35 15.45L14.85 9.45ZM12.75 14.25C12.75 13.4216 13.4216 12.75 14.25 12.75C15.0784 12.75 15.75 13.4216 15.75 14.25C15.75 15.0784 15.0784 15.75 14.25 15.75C13.4216 15.75 12.75 15.0784 12.75 14.25ZM9.75 8.25C8.92157 8.25 8.25 8.92157 8.25 9.75C8.25 10.5784 8.92157 11.25 9.75 11.25C10.5784 11.25 11.25 10.5784 11.25 9.75C11.25 8.92157 10.5784 8.25 9.75 8.25Z" fill="#3A52EE"/>
</svg>
