<svg width="24" height="24" viewBox="0 0 24 24" fill="none" xmlns="http://www.w3.org/2000/svg">
<path d="M3.41982 10.5H7.74973L11.2714 18.952C11.1342 18.8758 11.0064 18.7763 10.894 18.6537L3.41982 10.5Z" fill="#3A52EE"/>
<path d="M3.39844 9.00001L6.69868 5.03972C6.98367 4.69773 7.40584 4.5 7.85101 4.5H9.20917L7.70916 9.00001H3.39844Z" fill="#3A52EE"/>
<path d="M10.7903 4.5L9.2903 9.00001H14.7092L13.2092 4.5H10.7903Z" fill="#3A52EE"/>
<path d="M14.7903 4.5L16.2903 9.00001H20.601L17.3008 5.03972C17.0158 4.69773 16.5936 4.5 16.1485 4.5H14.7903Z" fill="#3A52EE"/>
<path d="M20.5796 10.5H16.2497L12.7281 18.952C12.8653 18.8758 12.993 18.7763 13.1055 18.6537L20.5796 10.5Z" fill="#3A52EE"/>
<path d="M11.9997 16.8L9.37473 10.5H14.6247L11.9997 16.8Z" fill="#3A52EE"/>
</svg>
