<svg width="24" height="24" viewBox="0 0 24 24" fill="none" xmlns="http://www.w3.org/2000/svg">
<path d="M6.75 4.5C5.50736 4.5 4.5 5.50736 4.5 6.75V17.25C4.5 18.4926 5.50736 19.5 6.75 19.5H13.352C12.9691 18.8381 12.75 18.0696 12.75 17.25C12.75 14.7647 14.7647 12.75 17.25 12.75C18.0696 12.75 18.8381 12.9691 19.5 13.352V9.75C19.5 8.50736 18.4926 7.5 17.25 7.5H12.6857L10.125 4.93934C9.84369 4.65803 9.46216 4.5 9.06434 4.5H6.75Z" fill="#3A52EE"/>
<path fill-rule="evenodd" clip-rule="evenodd" d="M17.25 14.25C15.5931 14.25 14.25 15.5931 14.25 17.25C14.25 18.9069 15.5931 20.25 17.25 20.25C17.8064 20.25 18.3273 20.0986 18.774 19.8346L19.7197 20.7803C20.0126 21.0732 20.4874 21.0732 20.7803 20.7803C21.0732 20.4874 21.0732 20.0126 20.7803 19.7197L19.8346 18.774C20.0986 18.3273 20.25 17.8064 20.25 17.25C20.25 15.5931 18.9069 14.25 17.25 14.25ZM15.75 17.25C15.75 16.4216 16.4216 15.75 17.25 15.75C18.0784 15.75 18.75 16.4216 18.75 17.25C18.75 18.0784 18.0784 18.75 17.25 18.75C16.4216 18.75 15.75 18.0784 15.75 17.25Z" fill="#3A52EE"/>
</svg>
