<svg width="24" height="24" viewBox="0 0 24 24" fill="none" xmlns="http://www.w3.org/2000/svg">
<path fill-rule="evenodd" clip-rule="evenodd" d="M10.6239 3.47028C11.4343 2.84324 12.5657 2.84324 13.3761 3.47028L20.1261 8.69272C20.6775 9.11929 21 9.77729 21 10.4743V18.7481C21 19.9909 19.9935 21 18.75 21H5.25C4.00647 21 3 19.9909 3 18.7481V10.4743C3 9.77729 3.32254 9.11929 3.87388 8.69272L10.6239 3.47028ZM9.75 16.4962C9.33579 16.4962 9 16.832 9 17.2462C9 17.6605 9.33579 17.9962 9.75 17.9962H14.25C14.6642 17.9962 15 17.6605 15 17.2462C15 16.832 14.6642 16.4962 14.25 16.4962H9.75Z" fill="#3A52EE"/>
</svg>
