<svg width="24" height="24" viewBox="0 0 24 24" fill="none" xmlns="http://www.w3.org/2000/svg">
<path fill-rule="evenodd" clip-rule="evenodd" d="M10.6239 3.47028C11.4343 2.84324 12.5657 2.84324 13.3761 3.47028L20.1261 8.69272C20.6775 9.11929 21 9.77729 21 10.4743V18.7481C21 19.9909 19.9935 21 18.75 21H5.25C4.00647 21 3 19.9909 3 18.7481V10.4743C3 9.77729 3.32254 9.11929 3.87388 8.69272L10.6239 3.47028ZM9.70362 14.7403C9.56022 14.3517 9.12894 14.153 8.74035 14.2964C8.35175 14.4398 8.15298 14.8711 8.29638 15.2597C8.58883 16.0521 9.08896 16.743 9.74597 17.2357C10.4043 17.7295 11.1888 18 12 18C12.8112 18 13.5957 17.7295 14.254 17.2357C14.911 16.743 15.4112 16.0521 15.7036 15.2597C15.847 14.8711 15.6483 14.4398 15.2597 14.2964C14.8711 14.153 14.4398 14.3517 14.2964 14.7403C14.0973 15.2799 13.765 15.7275 13.354 16.0357C12.9444 16.343 12.4732 16.5 12 16.5C11.5268 16.5 11.0556 16.343 10.646 16.0357C10.235 15.7275 9.90272 15.2799 9.70362 14.7403Z" fill="#3A52EE"/>
</svg>
