<svg width="24" height="24" viewBox="0 0 24 24" fill="none" xmlns="http://www.w3.org/2000/svg">
<path fill-rule="evenodd" clip-rule="evenodd" d="M5.66459 5.74377C6.04572 4.9815 6.82481 4.5 7.67705 4.5H16.3229C17.1752 4.5 17.9543 4.98151 18.3354 5.74377L20.7625 10.5979C20.9187 10.9103 21 11.2548 21 11.6041V18.75C21 19.9926 19.9926 21 18.75 21H5.25C4.00736 21 3 19.9926 3 18.75V11.6041C3 11.2548 3.08133 10.9103 3.23754 10.5979L5.66459 5.74377ZM19.5 12.128C19.2654 12.0451 19.013 12 18.75 12H16.3846C15.1093 12 14.2778 13.0613 13.8659 13.8425C13.7678 14.0287 13.6446 14.2002 13.4991 14.3515C13.0963 14.7704 12.5564 15 12 15C11.4436 15 10.9037 14.7704 10.5009 14.3515C10.3554 14.2002 10.2322 14.0287 10.1341 13.8425C9.72224 13.0613 8.89069 12 7.61539 12H5.25C4.98702 12 4.73458 12.0451 4.5 12.128V11.6041C4.5 11.4877 4.52711 11.3728 4.57918 11.2687L7.00623 6.41459C7.13327 6.1605 7.39297 6 7.67705 6H16.3229C16.607 6 16.8667 6.1605 16.9938 6.41459L19.4208 11.2687C19.4729 11.3728 19.5 11.4877 19.5 11.6041V12.128Z" fill="#3A52EE"/>
</svg>
