<svg width="24" height="24" viewBox="0 0 24 24" fill="none" xmlns="http://www.w3.org/2000/svg">
<path fill-rule="evenodd" clip-rule="evenodd" d="M3 6.75C3 4.67893 4.67893 3 6.75 3H17.25C19.3211 3 21 4.67893 21 6.75V17.25C21 19.3211 19.3211 21 17.25 21H6.75C4.67893 21 3 19.3211 3 17.25V6.75ZM10.5704 11.7597L7.28033 8.46967C6.98744 8.17678 6.51256 8.17678 6.21967 8.46967C5.92678 8.76256 5.92678 9.23744 6.21967 9.53033L9.96967 13.2803C10.2336 13.5442 10.6514 13.5739 10.95 13.35L13.38 11.5275L16.6738 15.4801C16.939 15.7983 17.4119 15.8413 17.7301 15.5762C18.0483 15.311 18.0913 14.8381 17.8262 14.5199L14.0762 10.0199C13.8205 9.71312 13.3694 9.66043 13.05 9.9L10.5704 11.7597Z" fill="#3A52EE"/>
</svg>
