<svg width="24" height="24" viewBox="0 0 24 24" fill="none" xmlns="http://www.w3.org/2000/svg">
<path fill-rule="evenodd" clip-rule="evenodd" d="M11.5119 4.68056C11.7928 4.43981 12.2072 4.43981 12.4881 4.68056L17.2143 8.73157C17.713 9.15903 18 9.78307 18 10.4399V17.25C18 18.4926 16.9926 19.5 15.75 19.5H8.25C7.00736 19.5 6 18.4926 6 17.25V10.4399C6 9.78307 6.28702 9.15903 6.78572 8.73157L11.5119 4.68056ZM12.75 9.75C12.75 9.33579 12.4142 9 12 9C11.5858 9 11.25 9.33579 11.25 9.75V9.7575C11.25 10.1717 11.5858 10.5075 12 10.5075C12.4142 10.5075 12.75 10.1717 12.75 9.7575V9.75Z" fill="#3A52EE"/>
</svg>
