<svg width="24" height="24" viewBox="0 0 24 24" fill="none" xmlns="http://www.w3.org/2000/svg">
<path fill-rule="evenodd" clip-rule="evenodd" d="M3 6.75C3 4.67893 4.67893 3 6.75 3H17.25C19.3211 3 21 4.67893 21 6.75V17.25C21 19.3211 19.3211 21 17.25 21H6.75C4.67893 21 3 19.3211 3 17.25V6.75ZM17.8262 9.48016C18.0913 9.16195 18.0483 8.68903 17.7301 8.42385C17.4119 8.15868 16.939 8.20167 16.6738 8.51988L13.38 12.4725L10.95 10.65C10.6514 10.4261 10.2336 10.4558 9.96967 10.7197L6.21967 14.4697C5.92678 14.7626 5.92678 15.2375 6.21967 15.5303C6.51256 15.8232 6.98744 15.8232 7.28033 15.5303L10.5704 12.2403L13.05 14.1C13.3694 14.3396 13.8205 14.2869 14.0762 13.9802L17.8262 9.48016Z" fill="#3A52EE"/>
</svg>
