<svg width="24" height="24" viewBox="0 0 24 24" fill="none" xmlns="http://www.w3.org/2000/svg">
<path fill-rule="evenodd" clip-rule="evenodd" d="M18.75 4.5C19.9926 4.5 21 5.50736 21 6.75V15.75C21 16.9926 19.9926 18 18.75 18H18V21C18 21.291 17.8317 21.5558 17.5681 21.6792C17.3046 21.8026 16.9934 21.7625 16.7699 21.5762L12.4785 18H5.25C4.00736 18 3 16.9926 3 15.75V6.75C3 5.50736 4.00736 4.5 5.25 4.5H18.75ZM6 9.75C6 9.33579 6.33579 9 6.75 9L11.25 9C11.6642 9 12 9.33579 12 9.75C12 10.1642 11.6642 10.5 11.25 10.5L6.75 10.5C6.33579 10.5 6 10.1642 6 9.75ZM6.75 12C6.33579 12 6 12.3358 6 12.75C6 13.1642 6.33579 13.5 6.75 13.5L14.25 13.5C14.6642 13.5 15 13.1642 15 12.75C15 12.3358 14.6642 12 14.25 12L6.75 12Z" fill="#3A52EE"/>
</svg>
