<svg width="24" height="24" viewBox="0 0 24 24" fill="none" xmlns="http://www.w3.org/2000/svg">
<path fill-rule="evenodd" clip-rule="evenodd" d="M4.5 20.25C4.5 19.8358 4.83579 19.5 5.25 19.5H18.75C19.1642 19.5 19.5 19.8358 19.5 20.25C19.5 20.6642 19.1642 21 18.75 21H5.25C4.83579 21 4.5 20.6642 4.5 20.25Z" fill="#3A52EE"/>
<path d="M11.25 9C11.25 8.58579 11.5858 8.25 12 8.25C12.4142 8.25 12.75 8.58579 12.75 9C12.75 9.41421 12.4142 9.75 12 9.75C11.5858 9.75 11.25 9.41421 11.25 9Z" fill="#3A52EE"/>
<path fill-rule="evenodd" clip-rule="evenodd" d="M6 8.8125C6 5.58614 8.60218 3 12 3C15.3978 3 18 5.58614 18 8.8125C18 10.6204 17.1598 12.5038 16.0898 14.0845C15.0134 15.6747 13.6347 17.0616 12.416 17.874C12.1641 18.042 11.8359 18.042 11.584 17.874C10.3653 17.0616 8.98664 15.6747 7.91017 14.0845C6.84016 12.5038 6 10.6204 6 8.8125ZM12 6.75C10.7574 6.75 9.75 7.75736 9.75 9C9.75 10.2426 10.7574 11.25 12 11.25C13.2426 11.25 14.25 10.2426 14.25 9C14.25 7.75736 13.2426 6.75 12 6.75Z" fill="#3A52EE"/>
</svg>
