<svg width="24" height="24" viewBox="0 0 24 24" fill="none" xmlns="http://www.w3.org/2000/svg">
<path fill-rule="evenodd" clip-rule="evenodd" d="M12.375 3C17.1385 3 21 6.86154 21 11.625C21 16.3885 17.1385 20.25 12.375 20.25C11.1454 20.25 9.97426 19.9923 8.914 19.5273L4.62287 20.2399C4.38408 20.2795 4.14084 20.2015 3.96968 20.0303C3.79852 19.8592 3.72049 19.6159 3.76014 19.3771L4.47271 15.086C4.00774 14.0258 3.75001 12.8546 3.75001 11.625C3.75001 6.86154 7.61155 3 12.375 3ZM8.25 9.75C8.25 9.33579 8.58579 9 9 9H12C12.4142 9 12.75 9.33579 12.75 9.75C12.75 10.1642 12.4142 10.5 12 10.5H9C8.58579 10.5 8.25 10.1642 8.25 9.75ZM9 12C8.58579 12 8.25 12.3358 8.25 12.75C8.25 13.1642 8.58579 13.5 9 13.5L15 13.5C15.4142 13.5 15.75 13.1642 15.75 12.75C15.75 12.3358 15.4142 12 15 12L9 12Z" fill="#3A52EE"/>
</svg>
