<svg width="24" height="24" viewBox="0 0 24 24" fill="none" xmlns="http://www.w3.org/2000/svg">
<path fill-rule="evenodd" clip-rule="evenodd" d="M5.25 4.5C4.00736 4.5 3 5.50736 3 6.75V15.75C3 16.9926 4.00736 18 5.25 18H8.68934L11.4697 20.7803C11.7626 21.0732 12.2374 21.0732 12.5303 20.7803L15.3107 18H18.75C19.9926 18 21 16.9926 21 15.75V6.75C21 5.50736 19.9926 4.5 18.75 4.5H5.25ZM7.5 9.75C7.5 9.33579 7.83579 9 8.25 9L11.25 9C11.6642 9 12 9.33579 12 9.75C12 10.1642 11.6642 10.5 11.25 10.5H8.25C7.83579 10.5 7.5 10.1642 7.5 9.75ZM8.25 12C7.83579 12 7.5 12.3358 7.5 12.75C7.5 13.1642 7.83579 13.5 8.25 13.5L14.25 13.5C14.6642 13.5 15 13.1642 15 12.75C15 12.3358 14.6642 12 14.25 12L8.25 12Z" fill="#3A52EE"/>
</svg>
