<svg width="24" height="24" viewBox="0 0 24 24" fill="none" xmlns="http://www.w3.org/2000/svg">
<path fill-rule="evenodd" clip-rule="evenodd" d="M9 4.5C8.65585 4.5 8.35586 4.73422 8.27239 5.0681L7.66442 7.5H3.75C3.33579 7.5 3 7.83579 3 8.25V11.25C3 11.6642 3.33579 12 3.75 12H4.07884C4.42299 12 4.72297 12.2342 4.80644 12.5681L6.02239 17.4319C6.10586 17.7658 6.40585 18 6.75 18H17.25C17.5942 18 17.8941 17.7658 17.9776 17.4319L19.1936 12.5681C19.277 12.2342 19.577 12 19.9212 12H20.25C20.6642 12 21 11.6642 21 11.25V8.25C21 7.83579 20.6642 7.5 20.25 7.5H16.3356L15.7276 5.0681C15.6441 4.73422 15.3442 4.5 15 4.5H9ZM14.4144 6L14.7894 7.5H9.21058L9.58558 6H14.4144ZM9.75 11.25C10.1642 11.25 10.5 11.5858 10.5 12V14.25C10.5 14.6642 10.1642 15 9.75 15C9.33579 15 9 14.6642 9 14.25V12C9 11.5858 9.33579 11.25 9.75 11.25ZM15 12C15 11.5858 14.6642 11.25 14.25 11.25C13.8358 11.25 13.5 11.5858 13.5 12V14.25C13.5 14.6642 13.8358 15 14.25 15C14.6642 15 15 14.6642 15 14.25V12Z" fill="#3A52EE"/>
</svg>
