<svg width="24" height="24" viewBox="0 0 24 24" fill="none" xmlns="http://www.w3.org/2000/svg">
<path d="M3.75 4.5C3.33579 4.5 3 4.83579 3 5.25C3 5.66421 3.33579 6 3.75 6H5.33156L5.6011 8.33597C5.60218 8.34535 5.60344 8.35471 5.60488 8.36404L6.75872 15.864C6.81501 16.2299 7.12982 16.5 7.5 16.5H17.25C17.6075 16.5 17.9153 16.2477 17.9854 15.8971L19.4854 8.39709C19.5295 8.17676 19.4725 7.94827 19.33 7.77451C19.1876 7.60074 18.9747 7.5 18.75 7.5H7.01459L6.74506 5.16403C6.70139 4.78559 6.38095 4.5 6 4.5H3.75Z" fill="#3A52EE"/>
<path d="M7.875 18.75C7.875 18.1287 8.37868 17.625 9 17.625H9.0075C9.62882 17.625 10.1325 18.1287 10.1325 18.75C10.1325 19.3713 9.62882 19.875 9.0075 19.875H9C8.37868 19.875 7.875 19.3713 7.875 18.75Z" fill="#3A52EE"/>
<path d="M15 17.625C14.3787 17.625 13.875 18.1287 13.875 18.75C13.875 19.3713 14.3787 19.875 15 19.875H15.0075C15.6288 19.875 16.1325 19.3713 16.1325 18.75C16.1325 18.1287 15.6288 17.625 15.0075 17.625H15Z" fill="#3A52EE"/>
</svg>
