<svg width="24" height="24" viewBox="0 0 24 24" fill="none" xmlns="http://www.w3.org/2000/svg">
<path d="M7.05454 15.5583L6.53351 15.0373L7.05454 15.5583C7.50764 15.1052 7.58028 14.4486 7.36189 13.9224C7.14566 13.4014 6.63172 12.9808 5.98679 12.9808H5.6504C5.42926 12.9808 5.25 12.8015 5.25 12.5804V11.4196C5.25 11.1985 5.42926 11.0192 5.6504 11.0192H5.9867C6.63169 11.0192 7.14567 10.5985 7.36192 10.0775C7.58034 9.55124 7.50771 8.89459 7.05455 8.44143L6.81668 8.20356C6.66037 8.04725 6.66037 7.79382 6.81668 7.6375L7.6376 6.81658C7.79394 6.66025 8.04741 6.66025 8.20374 6.81658L8.44169 7.05453C8.8948 7.50764 9.55136 7.58028 10.0776 7.36189C10.5986 7.14566 11.0192 6.63172 11.0192 5.98679V5.6504C11.0192 5.42926 11.1985 5.25 11.4196 5.25H12.5804C12.8015 5.25 12.9808 5.42926 12.9808 5.6504V5.98673C12.9808 6.6317 13.4015 7.14567 13.9225 7.36191C14.4487 7.58032 15.1053 7.50769 15.5585 7.05454L15.7964 6.81661C15.9528 6.66026 16.2062 6.66026 16.3626 6.81661L17.1834 7.63743C17.3398 7.79379 17.3398 8.04729 17.1834 8.20364L16.9455 8.4416L17.4758 8.97193L16.9455 8.4416C16.4923 8.89472 16.4197 9.55132 16.6381 10.0775C16.8543 10.5985 17.3683 11.0192 18.0132 11.0192H18.3496C18.5707 11.0192 18.75 11.1985 18.75 11.4196V12.5804C18.75 12.8015 18.5707 12.9808 18.3496 12.9808H18.0133C17.3683 12.9808 16.8543 13.4015 16.6381 13.9225C16.4196 14.4488 16.4923 15.1055 16.9454 15.5587L17.1832 15.7965C17.3395 15.9528 17.3395 16.2061 17.1832 16.3624L16.3622 17.1834C16.2059 17.3398 15.9525 17.3398 15.7962 17.1834L15.5582 16.9455C15.1051 16.4924 14.4486 16.4198 13.9224 16.6381C13.4014 16.8543 12.9808 17.3683 12.9808 18.0132V18.3496C12.9808 18.5707 12.8015 18.75 12.5804 18.75H11.4196C11.1985 18.75 11.0192 18.5707 11.0192 18.3496V18.0133C11.0192 17.3683 10.5985 16.8543 10.0775 16.6381C9.55124 16.4197 8.8946 16.4923 8.44144 16.9454L8.97177 17.4758L8.44144 16.9454L8.20351 17.1834C8.04716 17.3397 7.79366 17.3397 7.63731 17.1834L6.81653 16.3626L6.2862 16.8929L6.81653 16.3626C6.66016 16.2062 6.66016 15.9527 6.81653 15.7963L7.05454 15.5583ZM11.25 12C11.25 11.5858 11.5858 11.25 12 11.25C12.4142 11.25 12.75 11.5858 12.75 12C12.75 12.4142 12.4142 12.75 12 12.75C11.5858 12.75 11.25 12.4142 11.25 12ZM12 8.25C9.92893 8.25 8.25 9.92893 8.25 12C8.25 14.0711 9.92893 15.75 12 15.75C14.0711 15.75 15.75 14.0711 15.75 12C15.75 9.92893 14.0711 8.25 12 8.25Z" fill="#3A52EE" stroke="#3A52EE" stroke-width="1.5" stroke-linecap="round" stroke-linejoin="round"/>
</svg>
