<svg width="24" height="24" viewBox="0 0 24 24" fill="none" xmlns="http://www.w3.org/2000/svg">
<path d="M11.9999 3C9.51459 3 7.49988 5.01472 7.49988 7.5C7.49988 9.98528 9.51459 12 11.9999 12C14.4852 12 16.4999 9.98528 16.4999 7.5C16.4999 5.01472 14.4852 3 11.9999 3Z" fill="#3A52EE"/>
<path d="M11.9999 13.5C8.91936 13.5 6.03818 14.8511 4.9454 16.9647C4.60049 17.6318 4.75208 18.3173 5.15656 18.792C5.5387 19.2404 6.13362 19.5 6.74988 19.5H17.2499C17.8661 19.5 18.4611 19.2404 18.8432 18.792C19.2477 18.3173 19.3993 17.6318 19.0544 16.9647C17.9616 14.8511 15.0804 13.5 11.9999 13.5Z" fill="#3A52EE"/>
</svg>
