<svg width="24" height="24" viewBox="0 0 24 24" fill="none" xmlns="http://www.w3.org/2000/svg">
<path fill-rule="evenodd" clip-rule="evenodd" d="M3 5.25C3 4.00736 4.00736 3 5.25 3H18.75C19.9926 3 21 4.00736 21 5.25V18.75C21 19.9926 19.9926 21 18.75 21H5.25C4.00736 21 3 19.9926 3 18.75V5.25ZM14.25 9.75C14.25 10.9926 13.2426 12 12 12C10.7574 12 9.75001 10.9926 9.75001 9.75C9.75001 8.50736 10.7574 7.5 12 7.5C13.2426 7.5 14.25 8.50736 14.25 9.75ZM16.1401 16.4085C17.6341 15.6921 16.6569 14.25 15 14.25L9 14.25C7.34315 14.25 6.36591 15.6921 7.85989 16.4085C8.94525 16.9289 10.4115 17.25 12 17.25C13.5885 17.25 15.0548 16.9289 16.1401 16.4085Z" fill="#3A52EE"/>
</svg>
