<svg width="24" height="24" viewBox="0 0 24 24" fill="none" xmlns="http://www.w3.org/2000/svg">
<path fill-rule="evenodd" clip-rule="evenodd" d="M3 5.25C3 4.00736 4.00736 3 5.25 3H18.75C19.9926 3 21 4.00736 21 5.25V18.75C21 19.9926 19.9926 21 18.75 21H5.25C4.00736 21 3 19.9926 3 18.75V5.25ZM14.25 9C14.25 10.2426 13.2426 11.25 12 11.25C10.7574 11.25 9.75 10.2426 9.75 9C9.75 7.75736 10.7574 6.75 12 6.75C13.2426 6.75 14.25 7.75736 14.25 9ZM7.59055 16.5072C7.49126 16.9093 7.83579 17.25 8.25 17.25H15.75C16.1642 17.25 16.5087 16.9093 16.4094 16.5072C15.9872 14.7973 14.1419 13.5 12 13.5C9.85811 13.5 8.01275 14.7973 7.59055 16.5072Z" fill="#3A52EE"/>
</svg>
