<svg width="24" height="24" viewBox="0 0 24 24" fill="none" xmlns="http://www.w3.org/2000/svg">
<path fill-rule="evenodd" clip-rule="evenodd" d="M1.5 12C1.5 6.20101 6.20101 1.5 12 1.5C17.799 1.5 22.5 6.20101 22.5 12C22.5 17.799 17.799 22.5 12 22.5C6.20101 22.5 1.5 17.799 1.5 12ZM14.248 9.75C14.248 10.9926 13.2416 12 12 12C10.7584 12 9.75197 10.9926 9.75197 9.75C9.75197 8.50736 10.7584 7.5 12 7.5C13.2416 7.5 14.248 8.50736 14.248 9.75ZM16.8057 16.9195C17.9737 15.7453 16.6528 14.25 14.9974 14.25H9.00262C7.34722 14.25 6.02632 15.7453 7.19428 16.9195C8.29702 18.0281 10.0569 18.75 12 18.75C13.9431 18.75 15.703 18.0281 16.8057 16.9195Z" fill="#3A52EE"/>
</svg>
