<svg width="24" height="24" viewBox="0 0 24 24" fill="none" xmlns="http://www.w3.org/2000/svg">
<path d="M15 5.25C15 4.98265 14.8577 4.73551 14.6264 4.60132C14.3952 4.46713 14.11 4.46617 13.8779 4.59882L8.80083 7.5H5.25C4.83579 7.5 4.5 7.83579 4.5 8.25V15.75C4.5 16.1642 4.83579 16.5 5.25 16.5H8.80083L13.8779 19.4012C14.11 19.5338 14.3952 19.5329 14.6264 19.3987C14.8577 19.2645 15 19.0174 15 18.75V5.25Z" fill="#3A52EE"/>
<path d="M17.7803 9.96967C17.4874 9.67678 17.0126 9.67678 16.7197 9.96967C16.4268 10.2626 16.4268 10.7374 16.7197 11.0303L17.6893 12L16.7197 12.9697C16.4268 13.2626 16.4268 13.7374 16.7197 14.0303C17.0126 14.3232 17.4874 14.3232 17.7803 14.0303L18.75 13.0607L19.7197 14.0303C20.0126 14.3232 20.4874 14.3232 20.7803 14.0303C21.0732 13.7374 21.0732 13.2626 20.7803 12.9697L19.8107 12L20.7803 11.0303C21.0732 10.7374 21.0732 10.2626 20.7803 9.96967C20.4874 9.67678 20.0126 9.67678 19.7197 9.96967L18.75 10.9393L17.7803 9.96967Z" fill="#3A52EE"/>
</svg>
