<svg width="24" height="24" viewBox="0 0 24 24" fill="none" xmlns="http://www.w3.org/2000/svg">
<path fill-rule="evenodd" clip-rule="evenodd" d="M4.5 11.25C4.5 7.52208 7.52208 4.5 11.25 4.5C14.9779 4.5 18 7.52208 18 11.25C18 12.8438 17.4476 14.3085 16.5239 15.4633L20.7803 19.7197C21.0732 20.0126 21.0732 20.4874 20.7803 20.7803C20.4874 21.0732 20.0126 21.0732 19.7197 20.7803L15.4633 16.5239C14.3085 17.4476 12.8438 18 11.25 18C7.52208 18 4.5 14.9779 4.5 11.25ZM8.25 11.25C8.25 11.6642 8.58579 12 9 12H13.5C13.9142 12 14.25 11.6642 14.25 11.25C14.25 10.8358 13.9142 10.5 13.5 10.5H9C8.58579 10.5 8.25 10.8358 8.25 11.25Z" fill="#3A52EE"/>
</svg>
